Coordinates
version=1
nRows=17
nColumns=36
inDegrees=yes

Units are S.I. units (second, meters, Newtons, ...)
If the header above contains a line with 'inDegrees', this indicates whether rotational values are in degrees (yes) or radians (no).

endheader
time	pelvis_tilt	pelvis_list	pelvis_rotation	pelvis_tx	pelvis_ty	pelvis_tz	hip_flexion_r	hip_adduction_r	hip_rotation_r	knee_angle_r	knee_angle_r_beta	ankle_angle_r	subtalar_angle_r	mtp_angle_r	hip_flexion_l	hip_adduction_l	hip_rotation_l	knee_angle_l	knee_angle_l_beta	ankle_angle_l	subtalar_angle_l	mtp_angle_l	lumbar_extension	lumbar_bending	lumbar_rotation	arm_flex_r	arm_add_r	arm_rot_r	elbow_flex_r	pro_sup_r	arm_flex_l	arm_add_l	arm_rot_l	elbow_flex_l	pro_sup_l
      0.33000000	     -0.81378488	     -4.03908525	      4.09289066	      0.39524004	      0.96582443	     -0.15499518	     -3.00717131	     11.51196626	     -0.06117693	      1.23480587	      0.02155143	      6.40246498	    -10.16379120	     -6.39031425	     30.04209347	     -6.22210948	     -3.44821184	     52.45828127	      0.91556973	      1.20831432	    -10.80196815	     -6.39031425	     -5.93994201	      1.65398676	      8.17193544	     11.50485479	     -5.12414458	     -8.82674298	     36.81310868	    104.21563710	      0.01563948	     -1.22533313	     -8.31958676	     20.82169246	    100.69427194
      0.34000000	     -0.87615691	     -3.85017869	      3.72134869	      0.40576874	      0.96554527	     -0.15458940	     -3.85474066	     11.32223253	      0.12542950	      0.99537995	      0.01737266	      7.12119649	     -9.48509712	     -6.40781294	     30.28750176	     -5.84265315	     -4.15653507	     49.11627009	      0.85724063	      1.11608067	    -10.53170440	     -6.40781294	     -5.85038650	      1.44505934	      8.97663372	     11.85131478	     -5.29047575	     -9.05785408	     37.55617548	    104.29066953	     -0.90635039	     -1.19573185	     -9.32933952	     19.26056830	    100.21033995
      0.35000000	     -0.89544846	     -3.74448320	      3.32189741	      0.41642094	      0.96507181	     -0.15425610	     -4.70146602	     11.20323401	      0.12095812	      0.85438404	      0.01491181	      8.18245884	     -8.43480259	     -6.43703684	     30.36753710	     -5.57048119	     -4.94923405	     45.54822002	      0.79496641	      0.82078025	    -10.39104559	     -6.43703684	     -5.78979816	      1.37580024	      9.85134996	     12.10145804	     -5.44474187	     -9.53808657	     38.43804508	    104.45951761	     -1.83088751	     -1.10374454	    -10.64341913	     17.87954979	     99.55514012
      0.36000000	     -1.26959160	     -3.71246658	      3.01771787	      0.42704697	      0.96381112	     -0.15410536	     -5.11360583	     11.13924885	      0.23540377	      0.76082912	      0.01327897	      8.70164923	     -7.91622056	     -6.45257228	     30.80058960	     -5.26487293	     -5.62091194	     41.82492945	      0.72998273	      0.74674295	     -9.98487668	     -6.45257228	     -5.28147883	      1.37637014	     10.37824097	     12.39163137	     -5.56067286	     -9.69671654	     39.14349309	    104.49196093	     -3.17080883	     -1.16657770	    -11.34654720	     17.01888641	     99.16333307
      0.37000000	     -1.38258959	     -3.64717880	      2.60968381	      0.43782061	      0.96281025	     -0.15386851	     -5.82796121	     11.03218886	      0.39403403	      0.68366187	      0.01193215	      9.69095449	     -7.15595690	     -6.47729101	     30.73055523	     -5.03674857	     -6.63018434	     37.77226035	      0.65925031	      0.36786486	     -9.56443012	     -6.47729101	     -5.10196301	      1.35688214	     11.20526349	     12.58923073	     -5.76609880	    -10.02238173	     39.94539091	    104.62227567	     -4.25412600	     -1.14508180	    -12.54844854	     16.14859392	     98.60640589
      0.38000000	     -1.65384201	     -3.68346776	      2.33643644	      0.44867343	      0.96129830	     -0.15394155	     -6.31299232	     11.00466769	     -0.02017583	      0.67977227	      0.01186426	     10.88665697	     -5.38159881	     -6.57611811	     30.77934971	     -4.76315495	     -7.44093527	     33.57099565	      0.58592441	      0.04298769	     -9.21028257	     -6.57611811	     -4.75271218	      1.44192245	     11.68611504	     12.79694065	     -5.79251229	    -10.74509629	     40.84080303	    105.58888718	     -5.79343298	     -0.89259410	    -15.86640231	     16.61849862	     97.51232141
      0.39000000	     -2.00329904	     -3.73820750	      2.00373348	      0.45954829	      0.95953867	     -0.15392826	     -6.74202812	     11.01067622	      0.36566850	      0.63719106	      0.01112108	     11.33084012	     -5.35026666	     -6.59237510	     30.81029471	     -4.55264514	     -8.44867588	     29.27906115	      0.51101602	     -0.03908578	     -8.32782901	     -6.59237510	     -4.24012445	      1.57400983	     12.27439100	     12.97496587	     -6.03563278	    -10.61936645	     41.40218640	    105.60613354	     -7.18249668	     -0.97907483	    -16.46346807	     16.15666302	     97.30319234
      0.40000000	     -2.23631660	     -3.86529021	      1.68376818	      0.47041981	      0.95774551	     -0.15402977	     -7.29164651	     11.07777175	      0.53568872	      0.60918043	      0.01063220	     12.05468331	     -4.72508819	     -6.75352286	     30.62053997	     -4.41110550	     -9.63493676	     24.85521924	      0.43380541	     -0.05244244	     -7.25044878	     -6.75352286	     -3.98386144	      1.75209226	     12.58128468	     13.37029068	     -6.18249787	    -10.53869250	     41.94626283	    106.68226250	     -8.93085983	     -0.57766881	    -20.89097143	     17.31465583	     97.44219725
      0.41000000	     -2.59184356	     -4.02200033	      1.39912012	      0.48136521	      0.95567848	     -0.15423580	     -7.70612093	     11.17115230	      0.81903077	      0.57339614	      0.01000765	     12.50055538	     -4.60657738	     -6.76810764	     30.49981960	     -4.22813427	    -10.77561460	     20.44127782	      0.35676760	     -0.07935134	     -6.08781709	     -6.76810764	     -3.48845110	      2.01204904	     13.09246381	     13.46505802	     -6.40364768	    -10.58190817	     42.63156304	    106.60076972	    -10.31673466	     -0.66832221	    -21.28826426	     17.01793318	     97.37515964
      0.42000000	     -2.85571086	     -4.19783907	      1.13939311	      0.49236371	      0.95360398	     -0.15454004	     -8.21483753	     11.27833644	      1.08126599	      0.56201554	      0.00980902	     12.98681823	     -4.36725675	     -6.78285900	     30.22947254	     -4.04347771	    -11.97691997	     16.13358262	      0.28158414	     -0.00343949	     -4.69751636	     -6.78285900	     -3.13810716	      2.29526286	     13.54248880	     13.56482930	     -6.61402020	    -10.65856397	     43.36877426	    106.54466050	    -11.70359683	     -0.74331691	    -21.86116711	     16.85726068	     97.30117305
      0.43000000	     -3.29362794	     -4.47969595	      0.90861208	      0.50337229	      0.95109744	     -0.15492427	     -8.51026209	     11.49155776	      1.33824297	      0.57458416	      0.01002839	     13.22819197	     -4.14540083	     -6.79053552	     30.22503536	     -3.91905296	    -12.88229727	     12.23213994	      0.21349112	      0.31660075	     -3.59308860	     -6.79053552	     -2.55840119	      2.71664391	     13.75264548	     13.71041359	     -6.73493650	    -10.67145551	     44.04058206	    106.49213342	    -13.20994150	     -0.79866108	    -22.26549584	     16.59494392	     97.19798448
      0.44000000	     -3.21193192	     -4.61500646	      0.70403464	      0.51458055	      0.94934002	     -0.15536823	     -9.39621513	     11.52687647	      1.28334279	      0.58390044	      0.01019099	     14.11925449	     -3.15221766	     -6.84476070	     29.64246594	     -3.80200832	    -14.76228403	      8.75046726	      0.15272446	      1.22394654	     -0.31861609	     -6.84476070	     -2.68955234	      2.89333276	     14.14478002	     13.80510288	     -6.90804538	    -10.86728508	     44.84320739	    106.59374341	    -14.58518302	     -0.61346222	    -24.99289754	     17.38761927	     97.23858602
      0.45000000	     -3.37240108	     -4.85969513	      0.50623047	      0.52562065	      0.94713948	     -0.15582088	     -9.98439733	     11.68916485	      1.61322255	      0.61069494	      0.01065864	     14.43499881	     -3.19055727	     -6.85826643	     29.38605056	     -3.68308147	    -15.29218448	      5.76136375	      0.10055477	      1.40810084	      0.80435104	     -6.85826643	     -2.52065576	      3.22403850	     14.37827043	     13.97242351	     -7.12074062	    -10.68272576	     45.38916620	    106.58304111	    -15.87321832	     -0.65417040	    -25.59487278	     17.27382915	     97.19991650
      0.46000000	     -3.46505741	     -5.08317002	      0.29894279	      0.53676285	      0.94501455	     -0.15618157	    -10.62922915	     11.81922019	      1.95502326	      0.67823934	      0.01183751	     14.71190789	     -3.10507591	     -6.92872890	     29.28674547	     -3.73286980	    -16.33420638	      3.83745743	      0.06697627	      2.45100558	      3.06315361	     -6.92872890	     -2.43774134	      3.47557797	     14.45646851	     14.21637003	     -7.22736684	    -10.43642671	     45.84551496	    106.60217597	    -17.28364127	     -0.39958955	    -28.31181365	     17.94903872	     97.32943155
      0.47000000	     -3.62515617	     -5.29706191	      0.09594423	      0.54790026	      0.94284193	     -0.15651795	    -11.15242958	     11.93148495	      2.30133929	      0.82231977	      0.01435219	     14.85429685	     -3.08952149	     -6.93431220	     29.32063010	     -3.79298336	    -16.25930143	      2.61180416	      0.04558458	      2.88415524	      3.55870764	     -6.93431220	     -2.27821105	      3.73571920	     14.59502801	     14.35575980	     -7.31366036	    -10.35756348	     46.30902742	    106.57817908	    -18.42486708	     -0.49411968	    -28.57956232	     17.61072819	     97.25215067
      0.48000000	     -3.61284804	     -5.43963546	     -0.15688784	      0.55912324	      0.94100806	     -0.15670600	    -11.84767820	     11.96079955	      2.84351413	      1.00711829	      0.01757753	     14.94317559	     -3.51606708	     -6.97451113	     29.31164034	     -3.98364072	    -16.64180296	      2.33954739	      0.04083280	      3.90902344	      5.13094546	     -6.97451113	     -2.35646486	      3.86923280	     14.80589117	     14.48127245	     -7.42910367	    -10.15942388	     46.76550459	    106.52073358	    -19.45222419	     -0.42942476	    -29.97021516	     17.72902067	     97.01852333
      0.49000000	     -3.65545994	     -5.48575565	     -0.41732862	      0.57048335	      0.93922833	     -0.15684436	    -12.36144116	     11.87308552	      3.05015068	      1.41147913	      0.02463496	     15.05274855	     -3.50752554	     -6.97828408	     29.33779146	     -4.08947441	    -16.17803330	      2.57412519	      0.04492696	      4.17034948	      5.15703588	     -6.97828408	     -2.33992015	      3.88978206	     14.93457099	     14.60995962	     -7.40404149	    -10.11213465	     47.09291555	    106.46544520	    -20.40089339	     -0.55062412	    -30.18796867	     17.39174091	     96.90513177
